<?xml version="1.0" encoding="UTF-8"?>
<svg id="Layer_2" data-name="Layer 2" xmlns="http://www.w3.org/2000/svg" viewBox="0 0 220.92 103.11">
  <defs>
    <style>
      .cls-1 {
        stroke-miterlimit: 10;
      }

      .cls-1, .cls-2 {
        fill: none;
        stroke: #231f20;
      }

      .cls-3 {
        fill: #ae1f25;
      }

      .cls-3, .cls-4, .cls-5, .cls-6, .cls-7 {
        stroke-width: 0px;
      }

      .cls-4, .cls-6, .cls-7 {
        fill-rule: evenodd;
      }

      .cls-5 {
        fill: #2f2e3d;
      }

      .cls-2 {
        font-family: BerlinSansFB-Reg, 'Berlin Sans FB';
        font-size: 39.18px;
      }

      .cls-6 {
        fill: #424143;
      }

      .cls-7 {
        fill: #231f20;
        opacity: .4;
      }
    </style>
  </defs>
  <g id="Layer_1-2" data-name="Layer 1">
    <g>
      <path class="cls-1" d="M61.81,95.25h13.59c1.63,0,2.95-1.32,2.95-2.95V23.53c0-1.94-1.83-3.35-3.71-2.85-4.33,1.14-12.71,2.79-26.5,3.5-1.57.08-2.81,1.38-2.81,2.95l-.83,4.84c-.07.38-.07.78.03,1.16.07.26.17.5.3.73.64,1.09,1.96,1.59,3.2,1.3l7.92-1.84c1.61.03,2.91,1.34,2.91,2.95v56.03c0,1.63,1.32,2.95,2.95,2.95Z"/>
      <path class="cls-1" d="M103.24,95.25h13.59c1.63,0,2.95-1.32,2.95-2.95V23.53c0-1.94-1.83-3.35-3.71-2.85-4.33,1.14-12.71,2.79-26.5,3.5-1.57.08-2.81,1.38-2.81,2.95l-.83,4.84c-.07.38-.07.78.03,1.16.07.26.17.5.3.73.64,1.09,1.96,1.59,3.2,1.3l7.92-1.84c1.61.03,2.91,1.34,2.91,2.95v56.03c0,1.63,1.32,2.95,2.95,2.95Z"/>
      <path class="cls-1" d="M144.11,95.25h13.59c1.63,0,2.95-1.32,2.95-2.95V23.53c0-1.94-1.83-3.35-3.71-2.85-4.33,1.14-12.71,2.79-26.5,3.5-1.57.08-2.81,1.38-2.81,2.95l-.83,4.84c-.07.38-.07.78.03,1.16.07.26.17.5.3.73.64,1.09,1.96,1.59,3.2,1.3l7.92-1.84c1.61.03,2.91,1.34,2.91,2.95v56.03c0,1.63,1.32,2.95,2.95,2.95Z"/>
      <text class="cls-2" transform="translate(171.41 94.65)"><tspan x="0" y="0">.Tn</tspan></text>
      <path class="cls-3" d="M20.46,1.45s-9.82-.27-11.5,3.58c0,0-2.02,4.54-3.77,10.65,0,0,14.01,6.18,28.92,3.77l-.69-10.76s-.07-4.63-10.36-6.9c0,0-.16-1.97-1.17-1.77,0,0-.91-.26-1.43,1.43Z"/>
      <path class="cls-1" d="M16.56,94.65h14.22c1.63,0,2.95-1.32,2.95-2.95V26.49c0-1.59-1.26-2.9-2.85-2.95-5.39-.18-17.37-.87-26.64-3.42-1.89-.52-3.75.88-3.75,2.84v6.53c0,1.63,1.32,2.95,2.95,2.95h7.3c1.63,0,2.96,1.33,2.95,2.96l-.1,56.29c0,1.63,1.32,2.96,2.95,2.96Z"/>
      <g>
        <path class="cls-5" d="M25.69,38.19c-.2,0-.34-.06-.42-.22-.28-.56.71-2.33,2.28-3.6.81-.65,1.74-.87,2.49-.57.55.22,1.25.82,1.47,2.41.04.33.03.8-.31,1.16-.34.37-.93.53-1.75.49-1.46-.08-2.44.11-3.09.23-.27.05-.5.09-.67.09ZM29.34,33.97c-.52,0-1.09.22-1.6.63-1.63,1.32-2.35,2.93-2.2,3.23.05.1.35.04.77-.04.66-.13,1.67-.32,3.16-.23.72.04,1.23-.09,1.51-.39.25-.28.27-.65.23-.92-.16-1.15-.6-1.9-1.28-2.17-.18-.07-.38-.11-.59-.11Z"/>
        <path class="cls-5" d="M31.28,36.72c-.07-.27-.16-.53-.34-.75-.2-.24-.48-.39-.79-.47-.65-.16-1.36-.03-1.99.16-.59.18-1.17.45-1.68.8-.47.32-.9.73-1.09,1.28.05-.6.45-1.1.89-1.48.5-.43,1.1-.74,1.72-.95.63-.2,1.33-.31,1.99-.16.3.07.63.2.85.43.22.21.36.49.41.79.02.12.02.23.02.35Z"/>
      </g>
      <path class="cls-5" d="M15.77,35.67c.29-4.3,5.26-1.19,6.7-2.41.18-.15-.11.97-.37,1.1-1.12.54-2.46-.15-4.12-.34-1.82-.21-2.21,1.65-2.21,1.65Z"/>
      <path class="cls-5" d="M32.17,31.25c-2.29-3.32-4.83.01-6.92.7-.23.08.06,1.09.19,1.06,1.9-.34,2.01-1.44,3.67-2.24,1.76-.84,3.06.48,3.06.48Z"/>
      <path class="cls-5" d="M23.09,41.41c.2.08.39.16.6.2.25.06.51.08.77.07.25,0,.5-.05.74-.13.21-.07.4-.16.59-.27-.22.49-.78.74-1.3.77-.52.03-1.12-.19-1.4-.66Z"/>
      <path class="cls-5" d="M28.76,35.42c-.14,0-.27.04-.38.11.11.04.19.11.19.2,0,.13-.15.23-.34.23-.06,0-.12-.01-.17-.03-.04.1-.06.2-.06.32,0,.46.34.84.76.84s.76-.37.76-.84-.34-.84-.76-.84Z"/>
      <path class="cls-5" d="M22.52,38.01c-.24-.14-.48-.28-.74-.38-.31-.12-.63-.18-.95-.22-.68-.07-1.38.03-2.04.17-.48.1-.95.22-1.42.35-.22.04-.45.05-.67-.02-.15-.05-.34-.16-.4-.32.14.05.3.04.45,0,.09-.02.19-.05.27-.1.04-.02.08-.04.12-.06,0,0,.06-.03.05-.03.55-.26,1.14-.45,1.74-.56.67-.12,1.36-.14,2.02.04.64.17,1.21.56,1.56,1.12Z"/>
      <path class="cls-5" d="M18.31,38.35c.46-.28,1-.39,1.53-.4.29,0,.57.03.85.1.24.06.48.13.69.26-.51-.03-1.03-.06-1.54-.06-.28,0-.56.02-.83.03-.23.01-.47.05-.7.06Z"/>
      <path class="cls-5" d="M20.65,45.68c.6.19,1.21.33,1.83.45.7.13,1.42.21,2.14.21.55,0,1.08-.07,1.62-.17.3-.05.6-.13.89-.23.24-.08.49-.16.72-.28-.19.15-.42.27-.64.38-.31.15-.64.26-.98.35-.62.17-1.28.26-1.92.26-.71,0-1.41-.12-2.09-.32-.3-.09-.6-.19-.89-.32-.23-.1-.46-.2-.67-.33Z"/>
      <path class="cls-5" d="M29.45,43.86c.53-.17.82.59.54.97-.06-.18-.09-.37-.17-.55-.04-.09-.09-.17-.16-.25-.07-.07-.14-.11-.22-.17Z"/>
      <path class="cls-5" d="M18.31,42.44c-.06.05-.12.08-.17.14-.06.08-.11.15-.14.25-.05.16-.06.34-.1.5-.16-.16-.19-.43-.11-.63.08-.2.3-.33.51-.26Z"/>
      <path class="cls-5" d="M18.06,43.1c.21.19.45.34.69.48.29.17.59.32.89.46.64.29,1.31.5,1.98.67.63.17,1.29.27,1.94.35.58.07,1.18.11,1.77.12,1.4.03,2.8-.1,4.15-.48.07-.02.13-.03.19-.07.04-.03.09-.06.14-.06.06,0,.11.05.11.11,0,.06-.06.09-.12.1-.04,0-.07,0-.11,0-.04,0-.07.02-.11.03-.08.03-.16.05-.23.08-.16.05-.32.1-.48.14-.68.18-1.36.32-2.05.41-1.43.18-2.88.14-4.3-.14-.69-.14-1.36-.35-2.01-.61-.64-.25-1.25-.58-1.83-.95-.2-.13-.39-.28-.59-.41-.05-.03-.15-.07-.18-.13-.03-.09.08-.17.16-.11Z"/>
      <g>
        <g>
          <path class="cls-4" d="M24.42,43.87c1.5-1.75,3.31-1.82,5.27-1.2.14.04.27.09.4.15,2.72,1.26,5.56,1.99,8.59,1.85.04.06.08.12.12.18-.49.45-.92,1-1.47,1.34-1.28.79-2.58,1.57-3.95,2.18-1.81.82-3.73.82-5.62.28-1.37-.39-2.53-1.12-3.3-2.48-1,1.7-2.55,2.44-4.34,2.71-1.64.25-3.25.13-4.79-.56-1.68-.75-3.27-1.65-4.64-2.9-.2-.18-.36-.4-.61-.68.82-.05,1.5-.11,2.18-.13,2.03-.07,3.92-.68,5.77-1.47,1.05-.45,2.11-.88,3.29-.81,1.24.07,2.32.43,3.1,1.55ZM37.46,45.32c-2.63-.01-5.03-.81-7.39-1.84-.46-.2-.97-.43-1.45-.44-.84-.01-1.73,0-2.51.26-1.25.43-1.61,1.64-.94,2.8.19.33.42.71.73.88.84.47,1.7,1.01,2.63,1.22,3.51.82,6.25-.95,8.93-2.88ZM11.44,45.25c0,.06-.02.11-.03.17.49.31.99.62,1.48.94,1.97,1.28,4.04,2.23,6.47,2.01,1.57-.14,3.02-.56,4.07-1.82,1.18-1.41.62-3.01-1.16-3.46-1.12-.28-2.19-.13-3.23.31-2.43,1.04-4.89,1.93-7.6,1.85Z"/>
          <path class="cls-6" d="M37.46,45.32c-2.68,1.92-5.42,3.69-8.93,2.88-.92-.21-1.78-.75-2.63-1.22-.31-.17-.54-.55-.73-.88-.66-1.15-.31-2.37.94-2.8.78-.27,1.67-.27,2.51-.26.49,0,.99.24,1.45.44,2.35,1.03,4.76,1.83,7.39,1.84Z"/>
          <path class="cls-6" d="M11.44,45.25c2.71.08,5.18-.81,7.6-1.85,1.04-.45,2.11-.6,3.23-.31,1.78.45,2.34,2.05,1.16,3.46-1.05,1.26-2.51,1.68-4.07,1.82-2.43.22-4.5-.73-6.47-2.01-.49-.32-.99-.63-1.48-.94,0-.06.02-.11.03-.17Z"/>
        </g>
        <path class="cls-7" d="M36.11,45.44c-1.73.55-3.45,1.24-5.28,1.39-1.52.12-3.22-.1-4.3-1.3-.53-.58-.78-1.34-.75-2.09-.98.52-1.21,1.61-.61,2.65.19.33.42.71.73.88.84.47,1.7,1.01,2.63,1.22,3.51.82,6.25-.95,8.93-2.88-.28,0-.56-.01-.84-.03-.17.05-.34.1-.51.15Z"/>
        <path class="cls-7" d="M22.34,43.1c.05.2.09.4.12.61.12,1.21-.61,2.23-1.69,2.72-1.54.69-3.46.56-5.07.2-1.45-.32-2.84-.87-4.26-1.31,0,.03-.01.07-.02.1.49.31.99.62,1.48.94,1.97,1.28,4.04,2.23,6.47,2.01,1.57-.14,3.02-.56,4.07-1.82,1.16-1.39.63-2.97-1.1-3.44Z"/>
      </g>
    </g>
  </g>
</svg>